{
  "accessors": [
    {
      "bufferView": 2,
      "componentType": 5126,
      "count": 338,
      "max": [
        2.371394395828247,
        1.1615177392959595,
        0.6999512910842896
      ],
      "min": [
        -6.607748031616211,
        -1.138919711112976,
        -19.550033569335938
      ],
      "type": "VEC3"
    },
    {
      "bufferView": 2,
      "byteOffset": 4056,
      "componentType": 5126,
      "count": 338,
      "max": [
        1.0,
        1.0,
        0.9999854564666748
      ],
      "min": [
        -1.0,
        -1.0,
        -1.0
      ],
      "type": "VEC3"
    },
    {
      "bufferView": 1,
      "componentType": 5126,
      "count": 338,
      "max": [
        0.9921875,
        0.9901046752929688
      ],
      "min": [
        0.0090484619140625,
        0.00439453125
      ],
      "type": "VEC2"
    },
    {
      "bufferView": 1,
      "byteOffset": 2704,
      "componentType": 5126,
      "count": 338,
      "max": [
        0.9921875,
        0.9901046752929688
      ],
      "min": [
        0.0090484619140625,
        0.00439453125
      ],
      "type": "VEC2"
    },
    {
      "bufferView": 0,
      "componentType": 5125,
      "count": 984,
      "type": "SCALAR"
    },
    {
      "bufferView": 2,
      "byteOffset": 8112,
      "componentType": 5126,
      "count": 985,
      "max": [
        39.94999694824219,
        1.564059853553772,
        3.8892829418182373
      ],
      "min": [
        0.0225067138671875,
        -1.625420331954956,
        -0.8150513172149658
      ],
      "type": "VEC3"
    },
    {
      "bufferView": 2,
      "byteOffset": 19932,
      "componentType": 5126,
      "count": 985,
      "max": [
        1.0,
        1.0,
        1.0
      ],
      "min": [
        -1.0,
        -1.0,
        -1.0
      ],
      "type": "VEC3"
    },
    {
      "bufferView": 1,
      "byteOffset": 5408,
      "componentType": 5126,
      "count": 985,
      "max": [
        0.99609375,
        0.9905471801757813
      ],
      "min": [
        0.00920867919921875,
        0.00439453125
      ],
      "type": "VEC2"
    },
    {
      "bufferView": 1,
      "byteOffset": 13288,
      "componentType": 5126,
      "count": 985,
      "max": [
        0.99609375,
        0.9905471801757813
      ],
      "min": [
        0.00920867919921875,
        0.00439453125
      ],
      "type": "VEC2"
    },
    {
      "bufferView": 0,
      "byteOffset": 3936,
      "componentType": 5125,
      "count": 2571,
      "type": "SCALAR"
    },
    {
      "bufferView": 2,
      "byteOffset": 31752,
      "componentType": 5126,
      "count": 684,
      "max": [
        0.2745342254638672,
        3.7693753242492676,
        2.7732152938842773
      ],
      "min": [
        -28.788707733154297,
        -3.7687976360321045,
        -11.414295196533203
      ],
      "type": "VEC3"
    },
    {
      "bufferView": 2,
      "byteOffset": 39960,
      "componentType": 5126,
      "count": 684,
      "max": [
        1.0,
        1.0,
        1.0
      ],
      "min": [
        -1.0,
        -1.0,
        -0.9999405145645142
      ],
      "type": "VEC3"
    },
    {
      "bufferView": 1,
      "byteOffset": 21168,
      "componentType": 5126,
      "count": 684,
      "max": [
        0.98291015625,
        0.965057373046875
      ],
      "min": [
        0.006954193115234375,
        0.14404296875
      ],
      "type": "VEC2"
    },
    {
      "bufferView": 1,
      "byteOffset": 26640,
      "componentType": 5126,
      "count": 684,
      "max": [
        0.98291015625,
        0.965057373046875
      ],
      "min": [
        0.006954193115234375,
        0.14404296875
      ],
      "type": "VEC2"
    },
    {
      "bufferView": 0,
      "byteOffset": 14220,
      "componentType": 5125,
      "count": 1860,
      "type": "SCALAR"
    },
    {
      "bufferView": 2,
      "byteOffset": 48168,
      "componentType": 5126,
      "count": 5808,
      "max": [
        63.97726821899414,
        3.3098387718200684,
        13.498552322387695
      ],
      "min": [
        -2.6785993576049805,
        -3.309260368347168,
        -6.961020469665527
      ],
      "type": "VEC3"
    },
    {
      "bufferView": 2,
      "byteOffset": 117864,
      "componentType": 5126,
      "count": 5808,
      "max": [
        1.0,
        1.0,
        1.0
      ],
      "min": [
        -1.0,
        -1.0,
        -1.0
      ],
      "type": "VEC3"
    },
    {
      "bufferView": 1,
      "byteOffset": 32112,
      "componentType": 5126,
      "count": 5808,
      "max": [
        0.99658203125,
        0.9921340942382813
      ],
      "min": [
        0.005096435546875,
        0.00244140625
      ],
      "type": "VEC2"
    },
    {
      "bufferView": 1,
      "byteOffset": 78576,
      "componentType": 5126,
      "count": 5808,
      "max": [
        0.99658203125,
        0.9921340942382813
      ],
      "min": [
        0.005096435546875,
        0.00244140625
      ],
      "type": "VEC2"
    },
    {
      "bufferView": 0,
      "byteOffset": 21660,
      "componentType": 5125,
      "count": 14712,
      "type": "SCALAR"
    }
  ],
  "asset": {
    "extras": {
      "author": "NexzoN (https://sketchfab.com/NexzoN)",
      "license": "CC-BY-4.0 (http://creativecommons.org/licenses/by/4.0/)",
      "source": "https://sketchfab.com/3d-models/pubg-mobile-m4-glacier-cbd2336d8e8b44a2a95a6d1b5c1a7a91",
      "title": "pubg mobile m4 Glacier"
    },
    "generator": "Sketchfab-11.49.6",
    "version": "2.0"
  },
  "bufferViews": [
    {
      "buffer": 0,
      "byteLength": 80508,
      "name": "floatBufferViews",
      "target": 34963
    },
    {
      "buffer": 0,
      "byteLength": 125040,
      "byteOffset": 80508,
      "byteStride": 8,
      "name": "floatBufferViews",
      "target": 34962
    },
    {
      "buffer": 0,
      "byteLength": 187560,
      "byteOffset": 205548,
      "byteStride": 12,
      "name": "floatBufferViews",
      "target": 34962
    }
  ],
  "buffers": [
    {
      "byteLength": 393108,
      "uri": "scene.bin"
    }
  ],
  "extensionsUsed": [
    "KHR_materials_unlit"
  ],
  "images": [
    {
      "uri": "textures/magazine_baseColor.png"
    }
  ],
  "materials": [
    {
      "doubleSided": true,
      "extensions": {
        "KHR_materials_unlit": {}
      },
      "name": "magazine",
      "pbrMetallicRoughness": {
        "baseColorTexture": {
          "index": 0
        },
        "metallicFactor": 0.0
      }
    },
    {
      "doubleSided": true,
      "extensions": {
        "KHR_materials_unlit": {}
      },
      "name": "material",
      "pbrMetallicRoughness": {
        "baseColorTexture": {
          "index": 0
        },
        "metallicFactor": 0.0
      }
    },
    {
      "doubleSided": true,
      "extensions": {
        "KHR_materials_unlit": {}
      },
      "name": "back",
      "pbrMetallicRoughness": {
        "baseColorTexture": {
          "index": 0
        },
        "metallicFactor": 0.0
      }
    },
    {
      "doubleSided": true,
      "extensions": {
        "KHR_materials_unlit": {}
      },
      "name": "main",
      "pbrMetallicRoughness": {
        "baseColorTexture": {
          "index": 0
        },
        "metallicFactor": 0.0
      }
    }
  ],
  "meshes": [
    {
      "name": "magazine_magazine_0",
      "primitives": [
        {
          "attributes": {
            "NORMAL": 1,
            "POSITION": 0,
            "TEXCOORD_0": 2,
            "TEXCOORD_1": 3
          },
          "indices": 4,
          "material": 0,
          "mode": 4
        }
      ]
    },
    {
      "name": "aim_aim_0",
      "primitives": [
        {
          "attributes": {
            "NORMAL": 6,
            "POSITION": 5,
            "TEXCOORD_0": 7,
            "TEXCOORD_1": 8
          },
          "indices": 9,
          "material": 1,
          "mode": 4
        }
      ]
    },
    {
      "name": "back_back_0",
      "primitives": [
        {
          "attributes": {
            "NORMAL": 11,
            "POSITION": 10,
            "TEXCOORD_0": 12,
            "TEXCOORD_1": 13
          },
          "indices": 14,
          "material": 2,
          "mode": 4
        }
      ]
    },
    {
      "name": "main_main_0",
      "primitives": [
        {
          "attributes": {
            "NORMAL": 16,
            "POSITION": 15,
            "TEXCOORD_0": 17,
            "TEXCOORD_1": 18
          },
          "indices": 19,
          "material": 3,
          "mode": 4
        }
      ]
    }
  ],
  "nodes": [
    {
      "children": [
        1
      ],
      "matrix": [
        1.0,
        1.1811260350574447e-16,
        6.04527626213631e-16,
        0.0,
        -6.05127060842491e-16,
        0.005142889451235311,
        0.9999867677688599,
        0.0,
        1.1500202059074098e-16,
        -0.9999867677688599,
        0.005142889451235311,
        0.0,
        5.551115123125783e-17,
        0.00019585732661655432,
        -0.09558279067277908,
        1.0
      ],
      "name": "Sketchfab_model"
    },
    {
      "children": [
        2
      ],
      "matrix": [
        0.009999999776482582,
        0.0,
        0.0,
        0.0,
        0.0,
        0.0,
        0.009999999776482582,
        0.0,
        0.0,
        -0.009999999776482582,
        0.0,
        0.0,
        0.0,
        0.0,
        0.0,
        1.0
      ],
      "name": "M4 glacier.fbx"
    },
    {
      "children": [
        3,
        5
      ],
      "name": "RootNode"
    },
    {
      "children": [
        4
      ],
      "matrix": [
        0.011196024369515944,
        -0.997703732850671,
        0.06679753359334406,
        0.0,
        0.024223905684816527,
        0.06705273826296554,
        0.9974553286663075,
        0.0,
        -0.9996438622988141,
        -0.009549437013507911,
        0.024919005217598933,
        0.0,
        6.3484272956848145,
        114.40872192382813,
        -8.45189094543457,
        1.0
      ],
      "name": "CINEMA_4D_Editor"
    },
    {
      "name": "Object_4"
    },
    {
      "children": [
        6,
        8,
        10,
        12
      ],
      "name": "m4"
    },
    {
      "children": [
        7
      ],
      "matrix": [
        1.0,
        0.0,
        0.0,
        0.0,
        0.0,
        1.0,
        0.0,
        0.0,
        0.0,
        0.0,
        1.0,
        0.0,
        13.102104187011719,
        0.0,
        0.3001929521560669,
        1.0
      ],
      "name": "magazine"
    },
    {
      "mesh": 0,
      "name": "magazine_magazine_0"
    },
    {
      "children": [
        9
      ],
      "matrix": [
        1.0,
        0.0,
        0.0,
        0.0,
        0.0,
        1.0,
        0.0,
        0.0,
        0.0,
        0.0,
        1.0,
        0.0,
        -1.97019362449646,
        -2.619264724366641e-32,
        5.8021931648254395,
        1.0
      ],
      "name": "aim"
    },
    {
      "mesh": 1,
      "name": "aim_aim_0"
    },
    {
      "children": [
        11
      ],
      "matrix": [
        1.0,
        0.0,
        0.0,
        0.0,
        0.0,
        1.0,
        0.0,
        0.0,
        0.0,
        0.0,
        1.0,
        0.0,
        -6.014447212219238,
        0.0,
        1.1774370670318604,
        1.0
      ],
      "name": "back"
    },
    {
      "mesh": 2,
      "name": "back_back_0"
    },
    {
      "children": [
        13
      ],
      "matrix": [
        1.0,
        0.0,
        0.0,
        0.0,
        0.0,
        1.0,
        0.0,
        0.0,
        0.0,
        0.0,
        1.0,
        0.0,
        -6.014447212219238,
        0.0,
        -7.555505752563477,
        1.0
      ],
      "name": "main"
    },
    {
      "mesh": 3,
      "name": "main_main_0"
    }
  ],
  "samplers": [
    {
      "magFilter": 9729,
      "minFilter": 9987,
      "wrapS": 10497,
      "wrapT": 10497
    }
  ],
  "scene": 0,
  "scenes": [
    {
      "name": "Sketchfab_Scene",
      "nodes": [
        0
      ]
    }
  ],
  "textures": [
    {
      "sampler": 0,
      "source": 0
    }
  ]
}
